<svg width="58" height="56" viewBox="0 0 58 56" fill="none" xmlns="http://www.w3.org/2000/svg">
<path d="M28.0904 55.9992C27.0995 55.8238 26.0927 55.7127 25.1206 55.4643C18.4306 53.7573 13.7543 49.6549 11.4233 43.122C7.72196 32.7439 13.1965 21.641 23.5604 18.1509C34.1879 14.5717 45.7948 21.2288 48.2532 32.3143C50.6203 42.9875 43.8854 53.4577 33.2492 55.6251C32.4756 55.7829 31.6889 55.8764 30.9095 55.9992H28.0904ZM29.5275 54.4369C39.3119 54.393 47.2087 46.387 47.1739 36.5467C47.1391 26.7051 39.2235 18.7618 29.4739 18.7838C19.691 18.8057 11.7971 26.8015 11.8275 36.6549C11.8579 46.4776 19.8228 54.4793 29.5261 54.4354L29.5275 54.4369Z" fill="white"/>
<path d="M10.4501 17.5722C9.3679 18.3658 8.30312 19.1462 7.23979 19.9267C7.12245 20.0129 7.00655 20.0977 6.89066 20.1868C6.55601 20.4411 6.20398 20.5317 5.84906 20.2482C5.52455 19.9895 5.49558 19.6519 5.62451 19.2631C6.04173 18.0033 6.42708 16.7333 6.85734 15.4793C6.97323 15.1403 6.91384 14.9634 6.62845 14.7617C5.57815 14.0208 4.55249 13.2447 3.50654 12.4979C3.13133 12.2304 2.88506 11.9191 3.05455 11.4442C3.2168 10.9926 3.6036 10.9253 4.02951 10.9283C5.43763 10.937 6.84575 10.9312 8.31037 10.9312C8.64356 9.90082 8.97821 8.87047 9.30996 7.83866C9.4331 7.45867 9.55189 7.07722 9.66923 6.69431C9.78802 6.30848 10.0271 6.04395 10.4399 6.04395C10.8485 6.04395 11.0933 6.29386 11.2179 6.68408C11.6249 7.96581 12.0523 9.24023 12.4435 10.5278C12.542 10.8508 12.6883 10.9473 13.0128 10.9429C14.2587 10.9239 15.5045 10.9399 16.7518 10.9268C17.2284 10.9224 17.6891 10.9473 17.8615 11.488C18.0354 12.0375 17.6428 12.3152 17.2647 12.5885C16.2825 13.3003 15.3118 14.0295 14.318 14.7252C14.0037 14.9444 13.9139 15.1359 14.0486 15.5203C14.4687 16.7201 14.8367 17.939 15.2336 19.1477C15.3741 19.5744 15.4248 19.9807 15.0076 20.276C14.6107 20.558 14.2644 20.3812 13.9226 20.1254C12.7767 19.2734 11.6221 18.4316 10.4515 17.5707L10.4501 17.5722ZM10.4979 9.5296L10.3921 9.5486C10.1632 10.2545 9.93724 10.9604 9.7069 11.6663C9.46641 12.4014 9.30561 12.5096 8.52767 12.5052C7.81347 12.4994 7.09927 12.5052 6.38507 12.5052C6.8443 12.9875 7.3441 13.3587 7.84389 13.7285C8.49483 14.2088 8.69379 14.8392 8.44075 15.6196C8.24663 16.2189 8.05395 16.8181 7.81057 17.5707C8.56678 17.0154 9.20131 16.5725 9.80975 16.0976C10.2502 15.7541 10.6514 15.7629 11.086 16.0976C11.7017 16.5696 12.3319 17.0212 13.0852 17.578C12.794 16.6748 12.555 15.9163 12.3044 15.1637C12.1392 14.6667 12.2392 14.278 12.6912 13.9857C13.0099 13.7796 13.3098 13.5443 13.6154 13.3163C13.9341 13.0796 14.2485 12.8384 14.6846 12.5081C13.7719 12.5081 13.0345 12.5081 12.2971 12.5081C11.5858 12.5081 11.4091 12.3839 11.1918 11.7116C10.9571 10.9867 10.7282 10.2589 10.4964 9.53253L10.4979 9.5296Z" fill="white"/>
<path d="M50.6895 10.9312C52.1309 10.9312 53.5202 10.937 54.9095 10.9283C55.3673 10.9253 55.8004 10.9633 55.9583 11.488C56.1148 12.0068 55.786 12.2918 55.4122 12.5593C54.3967 13.2886 53.3985 14.0398 52.3772 14.7603C52.0947 14.9605 52.0223 15.1315 52.1411 15.475C52.567 16.7114 52.948 17.9639 53.3609 19.2062C53.5014 19.6285 53.5014 20.0027 53.1146 20.2789C52.7452 20.542 52.4033 20.4075 52.0715 20.162C50.9097 19.3012 49.7421 18.4462 48.557 17.5737C47.3865 18.433 46.242 19.288 45.0788 20.1137C44.8586 20.2701 44.5543 20.4075 44.2979 20.3914C43.7749 20.3578 43.5518 19.8361 43.7518 19.2062C44.1415 17.9756 44.5283 16.745 44.9513 15.5261C45.0816 15.1505 45.0078 14.9532 44.6891 14.7296C43.6504 14.0032 42.6392 13.2374 41.6106 12.4979C41.2629 12.2465 40.9906 11.9586 41.1354 11.4997C41.2861 11.0233 41.6772 10.9253 42.1321 10.9312C43.3418 10.9443 44.5543 10.9049 45.7625 10.9546C46.3029 10.9765 46.5043 10.7807 46.6448 10.2837C46.9707 9.13063 47.3662 7.99651 47.7226 6.85216C47.8559 6.42541 48.0471 6.0498 48.5483 6.0498C49.0467 6.0498 49.2394 6.41225 49.3755 6.84632C49.7971 8.1982 50.239 9.54423 50.6866 10.9356L50.6895 10.9312ZM51.0386 17.4582C51.0734 17.4407 51.1082 17.4231 51.1429 17.4056C50.914 16.7012 50.6851 15.9982 50.4577 15.2937C50.2187 14.5528 50.2766 14.373 50.9082 13.9112C51.4964 13.48 52.086 13.0518 52.6756 12.6221C51.9498 12.5023 51.2704 12.495 50.591 12.5038C49.6493 12.5154 49.5378 12.4394 49.2437 11.5202C49.0308 10.8537 48.8149 10.1858 48.5715 9.42731C48.5005 9.59392 48.4759 9.64215 48.46 9.69184C48.263 10.2969 48.0645 10.9005 47.8689 11.507C47.5618 12.4584 47.4778 12.514 46.4811 12.5008C45.8103 12.4921 45.141 12.4994 44.4703 12.4994C45.0165 13.0387 45.5814 13.4552 46.1479 13.8702C46.8548 14.3891 46.9012 14.5308 46.6245 15.3873C46.4057 16.0669 46.1855 16.745 45.919 17.5722C46.6839 17.0125 47.3199 16.5667 47.9341 16.0903C48.3542 15.7643 48.7425 15.7541 49.164 16.0742C49.7826 16.5433 50.4142 16.9978 51.0386 17.4582Z" fill="white"/>
<path d="M26.0473 8.99007C24.8261 8.09856 23.6526 7.24944 22.4879 6.39008C21.978 6.01301 21.8766 5.49565 22.2779 5.15219C22.4604 4.99435 22.7617 4.91397 23.0123 4.90959C24.3118 4.88766 25.6127 4.88766 26.9136 4.91251C27.27 4.91982 27.4178 4.79413 27.5177 4.46383C27.8929 3.22887 28.3 2.0056 28.6868 0.773563C28.8143 0.364345 28.9983 0.0150488 29.4763 0.000433833C29.9834 -0.0141811 30.1862 0.342423 30.3209 0.773563C30.7077 2.00414 31.1148 3.22887 31.4886 4.46383C31.59 4.79851 31.7406 4.91836 32.0941 4.91105C33.3762 4.88766 34.6583 4.9052 35.9418 4.89351C36.3692 4.88913 36.7444 4.95343 36.9037 5.41819C37.0732 5.91363 36.7835 6.20008 36.4257 6.46023C35.2827 7.29036 34.1454 8.12633 32.9633 8.99007C33.3385 10.1593 33.7152 11.3299 34.0918 12.5006C34.1643 12.7256 34.2324 12.9522 34.312 13.1743C34.4511 13.5675 34.454 13.9416 34.0904 14.2076C33.7326 14.4677 33.3834 14.3757 33.0444 14.1243C31.9971 13.3468 30.9337 12.5927 29.8994 11.7976C29.5951 11.5638 29.401 11.5769 29.1055 11.802C28.1436 12.5415 27.1541 13.2445 26.1806 13.9694C25.7924 14.2588 25.3983 14.5642 24.9159 14.2018C24.4306 13.8364 24.6305 13.3614 24.7783 12.9069C25.1998 11.6135 25.6185 10.3186 26.0502 8.98861L26.0473 8.99007ZM25.4113 6.45C25.4027 6.48946 25.3925 6.52892 25.3838 6.56692C25.9662 6.99367 26.55 7.41897 27.1324 7.84572C27.7915 8.32802 27.8364 8.47855 27.5844 9.27068C27.3584 9.97804 27.1353 10.6854 26.8731 11.517C27.6047 10.9806 28.2305 10.5495 28.8244 10.0774C29.2996 9.6989 29.7197 9.71059 30.1891 10.0789C30.7889 10.5495 31.4147 10.9865 32.1376 11.5185C31.8681 10.6752 31.6436 9.96781 31.4176 9.26191C31.1655 8.47417 31.2104 8.33532 31.8812 7.8428C32.4679 7.41312 33.056 6.98344 33.6935 6.51723C33.5573 6.47192 33.5254 6.45292 33.4935 6.45292C32.8431 6.45 32.1941 6.45 31.5436 6.44854C30.5527 6.44854 30.4846 6.39739 30.1732 5.42842C29.9675 4.78682 29.7632 4.14523 29.5575 3.50363C29.204 4.24753 28.9577 4.96512 28.7433 5.69295C28.5883 6.22201 28.2855 6.47338 27.7205 6.45438C26.9513 6.42662 26.1806 6.44708 25.4099 6.44708L25.4113 6.45Z" fill="white"/>
<path d="M29.5161 20.4727C38.3517 20.4873 45.5096 27.7407 45.4734 36.6426C45.4372 45.5577 38.3038 52.7322 29.4872 52.7205C20.6459 52.7103 13.4937 45.4642 13.5314 36.5579C13.5691 27.6501 20.7169 20.4581 29.5176 20.4727H29.5161ZM29.4944 22.0584C21.5035 22.0628 15.0699 28.5664 15.0771 36.6353C15.0844 44.6414 21.5701 51.1728 29.5075 51.1655C37.4535 51.1582 43.9218 44.6341 43.9247 36.6222C43.9276 28.5577 37.4839 22.054 29.4944 22.0584Z" fill="white"/>
<path d="M32.6814 31.8084C34.0417 31.8084 35.3223 31.804 36.6044 31.8084C38.8658 31.8157 40.1392 33.3751 39.6988 35.6185C39.2367 37.9759 38.7572 40.3289 38.2704 42.6804C37.9531 44.215 36.8116 45.1226 35.1905 45.1284C31.9918 45.1386 28.7946 45.1372 25.5959 45.124C25.2163 45.1226 24.9846 45.2176 24.7687 45.5595C24.224 46.4204 23.291 46.755 22.3711 46.4993C21.3585 46.2187 20.6646 45.3082 20.624 44.1273C20.5907 43.1802 20.6124 42.2317 20.6124 41.2832C20.6124 38.5488 20.6052 35.8143 20.6168 33.0799C20.6211 31.9969 21.0239 31.1142 22.0539 30.6523C23.081 30.192 24.2588 30.5339 24.86 31.5058C25.1236 31.9326 25.4699 31.861 25.7944 31.8084C25.9812 31.7777 26.2072 31.557 26.2898 31.3655C26.9388 29.8646 27.5487 28.3461 28.1861 26.8393C28.967 24.9934 30.9676 24.6178 32.3801 26.0165C33.5071 27.1345 33.6433 28.4542 33.2507 29.9011C33.0856 30.512 32.89 31.1171 32.6843 31.8069L32.6814 31.8084ZM25.2786 43.5032C25.3887 43.5237 25.4394 43.5427 25.4916 43.5427C28.7786 43.5441 32.0672 43.55 35.3542 43.5412C36.1379 43.5383 36.5943 43.1189 36.7623 42.2975C37.2404 39.9635 37.7156 37.628 38.182 35.2911C38.4298 34.0532 37.8633 33.3663 36.6044 33.3634C34.9964 33.359 33.3883 33.3649 31.7818 33.3605C30.9328 33.359 30.6402 32.9381 30.9024 32.1299C31.182 31.2661 31.479 30.4053 31.718 29.5299C31.9295 28.7538 31.9455 27.9793 31.4138 27.2909C30.7793 26.4695 29.9839 26.5616 29.5841 27.5145C29.0278 28.8371 28.4136 30.1423 27.9543 31.4985C27.5183 32.789 26.7824 33.5095 25.3887 33.4218C25.3598 33.4204 25.3279 33.4569 25.2801 33.4862V43.5018L25.2786 43.5032ZM23.7213 38.4391H23.7025C23.7025 37.5462 23.7025 36.6532 23.7025 35.7602C23.701 34.7942 23.6981 33.8281 23.6923 32.8636C23.6894 32.3973 23.475 32.086 23.0028 32.0437C22.5088 31.9984 22.2871 32.3184 22.2118 32.7598C22.1756 32.9732 22.1611 33.1939 22.1611 33.4116C22.1582 36.8008 22.1582 40.19 22.1611 43.5792C22.1611 43.7604 22.1625 43.9446 22.1886 44.1244C22.2697 44.7016 22.5725 45.0422 22.9651 45.0115C23.3635 44.9808 23.6938 44.5482 23.7213 44.0147C23.7285 43.8876 23.7213 43.759 23.7213 43.6318C23.7213 41.9014 23.7213 40.1696 23.7213 38.4391Z" fill="white"/>
</svg>
