<svg width="53" height="56" viewBox="0 0 53 56" fill="none" xmlns="http://www.w3.org/2000/svg">
<path d="M25.0904 55.9992C24.0995 55.8238 23.0927 55.7127 22.1206 55.4643C15.4306 53.7573 10.7543 49.6549 8.42334 43.122C4.72196 32.7439 10.1965 21.641 20.5604 18.1509C31.1879 14.5717 42.7948 21.2288 45.2532 32.3143C47.6203 42.9875 40.8854 53.4577 30.2492 55.6251C29.4756 55.7829 28.6889 55.8764 27.9095 55.9992H25.0904ZM26.5275 54.4369C36.3119 54.393 44.2087 46.387 44.1739 36.5467C44.1391 26.7051 36.2235 18.7618 26.4739 18.7838C16.691 18.8057 8.7971 26.8015 8.82752 36.6549C8.85794 46.4776 16.8228 54.4793 26.5261 54.4354L26.5275 54.4369Z" fill="#007484"/>
<path d="M7.45007 17.5722C6.3679 18.3658 5.30312 19.1462 4.23979 19.9267C4.12245 20.0129 4.00655 20.0977 3.89066 20.1868C3.55601 20.4411 3.20398 20.5317 2.84906 20.2482C2.52455 19.9895 2.49558 19.6519 2.62451 19.2631C3.04173 18.0033 3.42708 16.7333 3.85734 15.4793C3.97323 15.1403 3.91384 14.9634 3.62845 14.7617C2.57815 14.0208 1.55249 13.2447 0.50654 12.4979C0.131332 12.2304 -0.114944 11.9191 0.0545518 11.4442C0.216804 10.9926 0.603602 10.9253 1.02951 10.9283C2.43763 10.937 3.84575 10.9312 5.31037 10.9312C5.64356 9.90082 5.97821 8.87047 6.30996 7.83866C6.4331 7.45867 6.55189 7.07722 6.66923 6.69431C6.78802 6.30848 7.02705 6.04395 7.43993 6.04395C7.84846 6.04395 8.09328 6.29386 8.21787 6.68408C8.62495 7.96581 9.05231 9.24023 9.44345 10.5278C9.54196 10.8508 9.68828 10.9473 10.0128 10.9429C11.2587 10.9239 12.5045 10.9399 13.7518 10.9268C14.2284 10.9224 14.6891 10.9473 14.8615 11.488C15.0354 12.0375 14.6428 12.3152 14.2647 12.5885C13.2825 13.3003 12.3118 14.0295 11.318 14.7252C11.0037 14.9444 10.9139 15.1359 11.0486 15.5203C11.4687 16.7201 11.8367 17.939 12.2336 19.1477C12.3741 19.5744 12.4248 19.9807 12.0076 20.276C11.6107 20.558 11.2644 20.3812 10.9226 20.1254C9.77665 19.2734 8.62205 18.4316 7.45152 17.5707L7.45007 17.5722ZM7.49788 9.5296L7.39212 9.5486C7.16323 10.2545 6.93724 10.9604 6.7069 11.6663C6.46641 12.4014 6.30561 12.5096 5.52767 12.5052C4.81347 12.4994 4.09927 12.5052 3.38507 12.5052C3.8443 12.9875 4.3441 13.3587 4.84389 13.7285C5.49483 14.2088 5.69379 14.8392 5.44075 15.6196C5.24663 16.2189 5.05395 16.8181 4.81057 17.5707C5.56678 17.0154 6.20131 16.5725 6.80975 16.0976C7.25015 15.7541 7.65144 15.7629 8.08604 16.0976C8.70173 16.5696 9.33191 17.0212 10.0852 17.578C9.79404 16.6748 9.555 15.9163 9.30438 15.1637C9.13923 14.6667 9.23919 14.278 9.69118 13.9857C10.0099 13.7796 10.3098 13.5443 10.6154 13.3163C10.9341 13.0796 11.2485 12.8384 11.6846 12.5081C10.7719 12.5081 10.0345 12.5081 9.29714 12.5081C8.58584 12.5081 8.4091 12.3839 8.19179 11.7116C7.95711 10.9867 7.72822 10.2589 7.49643 9.53253L7.49788 9.5296Z" fill="#007484"/>
<path d="M47.6875 10.9312C49.129 10.9312 50.5183 10.937 51.9075 10.9283C52.3653 10.9253 52.7985 10.9633 52.9564 11.488C53.1129 12.0068 52.784 12.2918 52.4102 12.5593C51.3947 13.2886 50.3966 14.0398 49.3753 14.7603C49.0928 14.9605 49.0203 15.1315 49.1391 15.475C49.565 16.7114 49.946 17.9639 50.3589 19.2062C50.4994 19.6285 50.4994 20.0027 50.1126 20.2789C49.7432 20.542 49.4013 20.4075 49.0696 20.162C47.9077 19.3012 46.7401 18.4462 45.5551 17.5737C44.3845 18.433 43.2401 19.288 42.0768 20.1137C41.8566 20.2701 41.5524 20.4075 41.296 20.3914C40.773 20.3578 40.5499 19.8361 40.7498 19.2062C41.1395 17.9756 41.5263 16.745 41.9493 15.5261C42.0797 15.1505 42.0058 14.9532 41.6871 14.7296C40.6484 14.0032 39.6372 13.2374 38.6087 12.4979C38.261 12.2465 37.9886 11.9586 38.1335 11.4997C38.2842 11.0233 38.6753 10.9253 39.1302 10.9312C40.3398 10.9443 41.5524 10.9049 42.7606 10.9546C43.3009 10.9765 43.5023 10.7807 43.6428 10.2837C43.9688 9.13063 44.3643 7.99651 44.7206 6.85216C44.8539 6.42541 45.0451 6.0498 45.5464 6.0498C46.0447 6.0498 46.2374 6.41225 46.3736 6.84632C46.7952 8.1982 47.237 9.54423 47.6846 10.9356L47.6875 10.9312ZM48.0367 17.4582C48.0714 17.4407 48.1062 17.4231 48.141 17.4056C47.9121 16.7012 47.6832 15.9982 47.4558 15.2937C47.2167 14.5528 47.2747 14.373 47.9063 13.9112C48.4945 13.48 49.0841 13.0518 49.6737 12.6221C48.9479 12.5023 48.2685 12.495 47.589 12.5038C46.6474 12.5154 46.5358 12.4394 46.2418 11.5202C46.0288 10.8537 45.8129 10.1858 45.5696 9.42731C45.4986 9.59392 45.474 9.64215 45.458 9.69184C45.261 10.2969 45.0625 10.9005 44.867 11.507C44.5598 12.4584 44.4758 12.514 43.4791 12.5008C42.8084 12.4921 42.1391 12.4994 41.4684 12.4994C42.0145 13.0387 42.5795 13.4552 43.1459 13.8702C43.8529 14.3891 43.8992 14.5308 43.6225 15.3873C43.4038 16.0669 43.1836 16.745 42.917 17.5722C43.6819 17.0125 44.3179 16.5667 44.9321 16.0903C45.3523 15.7643 45.7405 15.7541 46.1621 16.0742C46.7807 16.5433 47.4123 16.9978 48.0367 17.4582Z" fill="#007484"/>
<path d="M23.0473 8.99007C21.8261 8.09856 20.6526 7.24944 19.4879 6.39008C18.978 6.01301 18.8766 5.49565 19.2779 5.15219C19.4604 4.99435 19.7617 4.91397 20.0123 4.90959C21.3118 4.88766 22.6127 4.88766 23.9136 4.91251C24.27 4.91982 24.4178 4.79413 24.5177 4.46383C24.8929 3.22887 25.3 2.0056 25.6868 0.773563C25.8143 0.364345 25.9983 0.0150488 26.4763 0.000433833C26.9834 -0.0141811 27.1862 0.342423 27.3209 0.773563C27.7077 2.00414 28.1148 3.22887 28.4886 4.46383C28.59 4.79851 28.7406 4.91836 29.0941 4.91105C30.3762 4.88766 31.6583 4.9052 32.9418 4.89351C33.3692 4.88913 33.7444 4.95343 33.9037 5.41819C34.0732 5.91363 33.7835 6.20008 33.4257 6.46023C32.2827 7.29036 31.1454 8.12633 29.9633 8.99007C30.3385 10.1593 30.7152 11.3299 31.0918 12.5006C31.1643 12.7256 31.2324 12.9522 31.312 13.1743C31.4511 13.5675 31.454 13.9416 31.0904 14.2076C30.7326 14.4677 30.3834 14.3757 30.0444 14.1243C28.9971 13.3468 27.9337 12.5927 26.8994 11.7976C26.5951 11.5638 26.401 11.5769 26.1055 11.802C25.1436 12.5415 24.1541 13.2445 23.1806 13.9694C22.7924 14.2588 22.3983 14.5642 21.9159 14.2018C21.4306 13.8364 21.6305 13.3614 21.7783 12.9069C22.1998 11.6135 22.6185 10.3186 23.0502 8.98861L23.0473 8.99007ZM22.4113 6.45C22.4027 6.48946 22.3925 6.52892 22.3838 6.56692C22.9662 6.99367 23.55 7.41897 24.1324 7.84572C24.7915 8.32802 24.8364 8.47855 24.5844 9.27068C24.3584 9.97804 24.1353 10.6854 23.8731 11.517C24.6047 10.9806 25.2305 10.5495 25.8244 10.0774C26.2996 9.6989 26.7197 9.71059 27.1891 10.0789C27.7889 10.5495 28.4147 10.9865 29.1376 11.5185C28.8681 10.6752 28.6436 9.96781 28.4176 9.26191C28.1655 8.47417 28.2104 8.33532 28.8812 7.8428C29.4679 7.41312 30.056 6.98344 30.6935 6.51723C30.5573 6.47192 30.5254 6.45292 30.4935 6.45292C29.8431 6.45 29.1941 6.45 28.5436 6.44854C27.5527 6.44854 27.4846 6.39739 27.1732 5.42842C26.9675 4.78682 26.7632 4.14523 26.5575 3.50363C26.204 4.24753 25.9577 4.96512 25.7433 5.69295C25.5883 6.22201 25.2855 6.47338 24.7205 6.45438C23.9513 6.42662 23.1806 6.44708 22.4099 6.44708L22.4113 6.45Z" fill="#007484"/>
<path d="M26.5161 20.4732C35.3517 20.4878 42.5096 27.7412 42.4734 36.6431C42.4372 45.5582 35.3038 52.7327 26.4872 52.721C17.6459 52.7108 10.4937 45.4647 10.5314 36.5583C10.5691 27.6506 17.7169 20.4586 26.5176 20.4732H26.5161ZM26.4944 22.0589C18.5035 22.0633 12.0699 28.5669 12.0771 36.6358C12.0844 44.6419 18.5701 51.1733 26.5075 51.166C34.4535 51.1587 40.9218 44.6346 40.9247 36.6227C40.9276 28.5581 34.4839 22.0545 26.4944 22.0589Z" fill="#007484"/>
<path d="M29.6814 31.8084C31.0417 31.8084 32.3223 31.804 33.6044 31.8084C35.8658 31.8157 37.1392 33.3751 36.6988 35.6185C36.2367 37.9759 35.7572 40.3289 35.2704 42.6804C34.9531 44.215 33.8116 45.1226 32.1905 45.1284C28.9918 45.1386 25.7946 45.1372 22.5959 45.124C22.2163 45.1226 21.9846 45.2176 21.7687 45.5595C21.224 46.4204 20.291 46.755 19.3711 46.4993C18.3585 46.2187 17.6646 45.3082 17.624 44.1273C17.5907 43.1802 17.6124 42.2317 17.6124 41.2832C17.6124 38.5488 17.6052 35.8143 17.6168 33.0799C17.6211 31.9969 18.0239 31.1142 19.0539 30.6523C20.081 30.192 21.2588 30.5339 21.86 31.5058C22.1236 31.9326 22.4699 31.861 22.7944 31.8084C22.9812 31.7777 23.2072 31.557 23.2898 31.3655C23.9388 29.8646 24.5487 28.3461 25.1861 26.8393C25.967 24.9934 27.9676 24.6178 29.3801 26.0165C30.5071 27.1345 30.6433 28.4542 30.2507 29.9011C30.0856 30.512 29.89 31.1171 29.6843 31.8069L29.6814 31.8084ZM22.2786 43.5032C22.3887 43.5237 22.4394 43.5427 22.4916 43.5427C25.7786 43.5441 29.0672 43.55 32.3542 43.5412C33.1379 43.5383 33.5943 43.1189 33.7623 42.2975C34.2404 39.9635 34.7156 37.628 35.182 35.2911C35.4298 34.0532 34.8633 33.3663 33.6044 33.3634C31.9964 33.359 30.3883 33.3649 28.7818 33.3605C27.9328 33.359 27.6402 32.9381 27.9024 32.1299C28.182 31.2661 28.479 30.4053 28.718 29.5299C28.9295 28.7538 28.9455 27.9793 28.4138 27.2909C27.7793 26.4695 26.9839 26.5616 26.5841 27.5145C26.0278 28.8371 25.4136 30.1423 24.9543 31.4985C24.5183 32.789 23.7824 33.5095 22.3887 33.4218C22.3598 33.4204 22.3279 33.4569 22.2801 33.4862V43.5018L22.2786 43.5032ZM20.7213 38.4391H20.7025C20.7025 37.5462 20.7025 36.6532 20.7025 35.7602C20.701 34.7942 20.6981 33.8281 20.6923 32.8636C20.6894 32.3973 20.475 32.086 20.0028 32.0437C19.5088 31.9984 19.2871 32.3184 19.2118 32.7598C19.1756 32.9732 19.1611 33.1939 19.1611 33.4116C19.1582 36.8008 19.1582 40.19 19.1611 43.5792C19.1611 43.7604 19.1625 43.9446 19.1886 44.1244C19.2697 44.7016 19.5725 45.0422 19.9651 45.0115C20.3635 44.9808 20.6938 44.5482 20.7213 44.0147C20.7285 43.8876 20.7213 43.759 20.7213 43.6318C20.7213 41.9014 20.7213 40.1696 20.7213 38.4391Z" fill="#007484"/>
</svg>
