<svg width="188" height="40" viewBox="0 0 188 40" fill="none" xmlns="http://www.w3.org/2000/svg">
<g clip-path="url(#clip0_2117_8059)">
<path fill-rule="evenodd" clip-rule="evenodd" d="M17.5884 8.92994C17.5884 13.777 13.6914 17.7066 8.88446 17.7066C4.07751 17.7066 0.180664 13.7772 0.180664 8.92994C0.180664 4.08262 4.07751 0.152832 8.88446 0.152832C13.6914 0.152832 17.5884 4.08262 17.5884 8.92994Z" fill="#007484"/>
<path fill-rule="evenodd" clip-rule="evenodd" d="M39.4479 8.92994C39.4479 13.777 35.5511 17.7066 30.7439 17.7066C25.9369 17.7066 22.04 13.7772 22.04 8.92994C22.04 4.08262 25.9369 0.152832 30.7439 0.152832C35.5511 0.152832 39.4479 4.08262 39.4479 8.92994Z" fill="#007484"/>
<path fill-rule="evenodd" clip-rule="evenodd" d="M39.4479 31.0226C39.4479 35.8699 35.5511 39.7993 30.7439 39.7993C25.9369 39.7993 22.04 35.8699 22.04 31.0226C22.04 26.1753 25.9369 22.2456 30.7439 22.2456C35.5511 22.2456 39.4479 26.1753 39.4479 31.0226Z" fill="#007484"/>
<path fill-rule="evenodd" clip-rule="evenodd" d="M17.5884 31.0226C17.5884 35.8699 13.6914 39.7993 8.88446 39.7993C4.07751 39.7993 0.180664 35.8699 0.180664 31.0226C0.180664 26.1753 4.07751 22.2456 8.88446 22.2456C13.6914 22.2456 17.5884 26.1753 17.5884 31.0226Z" fill="#007484"/>
<path d="M132.329 38.0361C131.824 38.5825 131.096 38.8647 130.231 38.8647C129.374 38.8647 128.646 38.5845 128.138 38.0458C127.656 37.5345 127.375 36.7917 127.375 35.8371V31.9134L127.979 31.7534V35.7876C127.979 36.5861 128.191 37.2145 128.578 37.6431C128.968 38.0739 129.537 38.3049 130.251 38.3049C130.946 38.3049 131.513 38.0889 131.901 37.6611C132.274 37.2499 132.482 36.6407 132.482 35.8371L132.482 31.9144L133.087 31.7534V35.7777C133.087 36.7578 132.809 37.5161 132.329 38.0361Z" fill="#007484"/>
<path fill-rule="evenodd" clip-rule="evenodd" d="M98.6219 31.9652C98.2224 31.8215 97.7747 31.7446 97.2992 31.7446C96.8138 31.7446 96.357 31.8307 95.9289 32.0132C95.5007 32.1955 95.1199 32.4547 94.7963 32.8001C94.4633 33.1456 94.2063 33.5391 94.0352 33.9805C93.8544 34.4314 93.7686 34.8826 93.7686 35.3623C93.7688 35.6404 93.7972 35.8995 93.8541 36.149C93.883 36.2833 93.921 36.4081 93.9587 36.533C94.0066 36.6576 94.0448 36.7727 94.1015 36.8881C94.3302 37.3679 94.6441 37.7902 95.0533 38.1354C95.3579 38.3946 95.7005 38.596 96.081 38.7303C96.4619 38.8649 96.8708 38.932 97.3086 38.932C97.5466 38.9318 97.7747 38.9129 97.9937 38.8746C98.2031 38.8263 98.4222 38.7686 98.6409 38.6823C99.0787 38.5194 99.4879 38.27 99.8778 37.9531V35.036H97.6608V35.6501H99.2119V37.598C98.9645 37.838 98.6789 38.0108 98.3459 38.1354C98.013 38.26 97.6704 38.3177 97.3086 38.3177C96.5095 38.3177 95.8337 38.03 95.2817 37.4445C94.73 36.8591 94.4537 36.1587 94.4537 35.3337C94.454 34.4986 94.73 33.7982 95.2723 33.2222C95.8243 32.6464 96.4905 32.3587 97.2896 32.3587C97.6512 32.3587 98.013 32.4258 98.3556 32.5507C98.6981 32.685 99.0215 32.8673 99.3261 33.1168L99.7067 32.6273C99.3929 32.3393 99.0215 32.1189 98.6219 31.9652Z" fill="#007484"/>
<path fill-rule="evenodd" clip-rule="evenodd" d="M106.827 35.3332V32.3393H107.16C107.721 32.3393 108.149 32.4641 108.444 32.7233C108.739 32.9728 108.891 33.3376 108.891 33.8174C108.891 34.2969 108.739 34.6617 108.435 34.9303C108.13 35.1992 107.702 35.3332 107.15 35.3332H106.827ZM106.16 38.6918L106.827 38.6057V35.7172L109.167 38.7495L109.757 38.4423L107.654 35.7941C108.244 35.7364 108.71 35.5349 109.044 35.1798C109.377 34.8246 109.548 34.3643 109.548 33.798C109.548 33.1262 109.339 32.6176 108.91 32.2624C108.482 31.9172 107.863 31.7446 107.055 31.7446H106.16V38.6918Z" fill="#007484"/>
<path fill-rule="evenodd" clip-rule="evenodd" d="M140.337 35.3332V32.3393H140.67C141.231 32.3393 141.66 32.4641 141.955 32.7233C142.25 32.9728 142.402 33.3376 142.402 33.8174C142.402 34.2969 142.25 34.6617 141.945 34.9303C141.641 35.1992 141.213 35.3332 140.66 35.3332H140.337ZM139.671 38.6918L140.337 38.6057V35.8268L141.165 35.7941C141.755 35.7364 142.221 35.5349 142.554 35.1798C142.888 34.8246 143.059 34.3643 143.059 33.798C143.059 33.1262 142.849 32.6176 142.421 32.2624C141.993 31.9172 141.374 31.7446 140.565 31.7446H139.671V38.6918Z" fill="#007484"/>
<path d="M121.554 37.9069C120.947 38.5343 120.098 38.9333 119.085 38.9333C118.071 38.9333 117.225 38.5379 116.623 37.9118C115.983 37.2461 115.618 36.319 115.618 35.3292C115.618 34.3486 115.989 33.4201 116.636 32.7515C117.242 32.1241 118.092 31.7251 119.105 31.7251C120.119 31.7251 120.964 32.1205 121.566 32.7467C122.207 33.4126 122.572 34.3399 122.572 35.3292C122.572 36.3098 122.201 37.2383 121.554 37.9069ZM117.071 37.5026C117.578 38.0415 118.287 38.3755 119.105 38.3755C119.923 38.3755 120.628 38.0453 121.13 37.5081C121.646 36.9566 121.95 36.1867 121.95 35.3292C121.95 34.481 121.64 33.7098 121.119 33.1561C120.611 32.6172 119.903 32.2829 119.085 32.2829C118.266 32.2829 117.562 32.6131 117.059 33.1505C116.544 33.7018 116.24 34.4722 116.24 35.3292C116.24 36.1775 116.55 36.9486 117.071 37.5026Z" fill="#007484"/>
<path fill-rule="evenodd" clip-rule="evenodd" d="M53.1365 1.33191C50.4011 2.20968 49.0645 3.49481 49.0645 5.21883V22.0826C49.0645 22.5841 49.3753 22.8976 49.9972 23.0229C50.0593 23.0229 50.1213 23.0229 50.1833 22.9915C50.6189 22.9915 50.8985 22.6156 50.9918 21.8946V12.9611H60.3483V22.0826C60.3483 22.5841 60.6591 22.8976 61.2806 23.0229C61.3431 23.0229 61.3739 23.0229 61.3739 22.9915C61.9646 22.9915 62.2444 22.5841 62.2444 21.8005V5.68904C62.2444 4.81127 62.0268 4.0278 61.5917 3.40079C60.1617 1.80204 58.2656 1.01855 55.9341 1.01855H55.468C54.753 1.01855 53.9758 1.11247 53.1365 1.33191ZM51.3024 4.46659C52.3285 3.43224 53.7895 2.89924 55.6235 2.89924C55.9341 2.93039 56.183 2.96201 56.3693 2.96201C59.0116 3.36947 60.3483 4.18429 60.3483 5.40676V11.049H50.9918V5.21864C50.9918 4.99939 51.0851 4.74843 51.3024 4.46659Z" fill="#007484"/>
<path fill-rule="evenodd" clip-rule="evenodd" d="M69.1602 1.99015C69.1602 2.55428 69.502 2.86793 70.1547 2.96192L74.8177 2.96175V22.1136C74.942 22.7096 75.2216 23.0228 75.6567 23.0228C76.3409 22.9287 76.6828 22.6782 76.6828 22.2392V2.96175H81.283C81.9982 2.89915 82.3401 2.58563 82.3401 2.05283V1.99015C82.3401 1.48851 82.0293 1.17524 81.4076 1.0498H70.0927C69.5955 1.0498 69.2847 1.36307 69.1602 1.99015Z" fill="#007484"/>
<path fill-rule="evenodd" clip-rule="evenodd" d="M93.0987 1.33191C90.3633 2.20968 89.0264 3.49481 89.0264 5.21883L89.0266 22.0826C89.0266 22.5841 89.3375 22.8976 89.9591 23.0229C90.0214 23.0229 90.0832 23.0229 90.1455 22.9915C90.5809 22.9915 90.8604 22.6156 90.9537 21.8946V12.9611H100.31V22.0826C100.31 22.5841 100.621 22.8976 101.243 23.0229C101.305 23.0229 101.336 23.0229 101.336 22.9915C101.927 22.9915 102.207 22.5841 102.207 21.8005V5.68904C102.207 4.81127 101.989 4.0278 101.554 3.40079C100.124 1.80204 98.2278 1.01855 95.8963 1.01855H95.4299C94.7149 1.01855 93.9379 1.11247 93.0987 1.33191ZM91.2648 4.46659C92.2906 3.43224 93.7514 2.89924 95.5854 2.89924C95.8963 2.93039 96.1451 2.96201 96.3314 2.96201C98.9738 3.36947 100.31 4.18429 100.31 5.40676V11.049H90.9537V5.21864C90.9537 4.99939 91.0472 4.74843 91.2648 4.46659Z" fill="#007484"/>
<path fill-rule="evenodd" clip-rule="evenodd" d="M112.293 1.45727C110.273 2.30361 109.247 3.61998 109.247 5.37542V22.1136C109.247 22.6155 109.558 22.9287 110.148 23.0228H110.242C110.801 23.0228 111.112 22.6467 111.174 21.8945V5.15608C111.174 5.09338 111.205 4.93654 111.267 4.74834C111.92 3.55731 112.977 2.93069 114.469 2.93069C114.998 2.99307 115.433 3.05583 115.775 3.18119C117.08 3.61998 117.733 4.43508 117.733 5.62628V22.2392C117.733 22.6467 118.044 22.8975 118.635 23.0228H118.728C119.194 23.0228 119.505 22.7096 119.598 22.114V5.62628C119.598 5.37542 119.629 5.12483 119.722 4.77976C120.344 3.55731 121.401 2.93069 122.893 2.93069C123.328 2.93031 123.826 3.02468 124.385 3.24386C125.567 3.80817 126.157 4.43508 126.157 5.15608V21.8945C126.219 22.6467 126.53 23.0228 127.09 23.0228H127.152C127.68 23.0228 127.991 22.7096 128.084 22.0825V5.37542C128.084 4.65443 127.898 3.96505 127.494 3.33797C126.375 1.80196 124.914 1.0498 123.017 1.0498H122.645C121.215 1.0498 119.878 1.64527 118.666 2.80524C117.453 1.64527 116.117 1.0498 114.687 1.0498H114.314C113.568 1.0498 112.915 1.17525 112.293 1.45727Z" fill="#007484"/>
<path fill-rule="evenodd" clip-rule="evenodd" d="M135.047 1.86453V18.9165C135.047 19.512 135.264 20.1704 135.762 20.8287C137.192 22.3018 139.026 23.0228 141.264 23.0228H141.761C142.663 23.0228 143.595 22.866 144.528 22.5527C146.859 21.6748 148.009 20.4527 148.009 18.9165L148.009 1.86453C148.009 1.48851 147.729 1.23791 147.201 1.0498H146.921C146.579 1.0498 146.299 1.33201 146.144 1.8649V18.5406C146.144 18.7914 146.113 19.042 146.02 19.3556C145.056 20.5151 143.688 21.1106 141.854 21.1106H140.798C138.186 20.7347 136.881 19.8884 136.881 18.5406L136.881 1.89606C136.756 1.33183 136.477 1.0498 136.104 1.0498H135.824C135.451 1.0498 135.202 1.33201 135.047 1.8649V1.86453Z" fill="#007484"/>
<path fill-rule="evenodd" clip-rule="evenodd" d="M154.823 2.17817V21.9257C154.886 22.6467 155.196 23.0228 155.725 23.0228H155.787C156.315 23.0228 156.626 22.7096 156.719 22.0825V14.6224H160.356C160.947 14.6224 161.662 14.6224 162.532 14.591C164.646 14.9357 165.827 15.5312 166.076 16.3463V21.9257C166.2 22.6155 166.48 22.9914 166.946 22.9914C167.63 22.8975 167.972 22.584 167.972 22.0198L167.972 16.3777C167.972 15.1865 167.195 14.2148 165.64 13.4938V13.4626C167.195 12.4908 167.972 11.2684 167.972 9.79523L167.972 5.90812C167.972 5.40667 167.879 4.90519 167.661 4.37239C166.449 2.14692 164.304 1.0498 161.195 1.0498H155.88C155.165 1.0498 154.823 1.42584 154.823 2.17817ZM161.444 2.99307C161.942 2.99307 162.501 3.05583 163.123 3.18119C165.081 3.83952 166.076 4.71729 166.076 5.8144V9.82638C166.076 10.4847 165.703 11.0802 164.957 11.6757C164.335 12.1145 163.465 12.4596 162.314 12.6475C161.631 12.6161 161.071 12.585 160.667 12.585L156.719 12.5847V2.99307H161.444Z" fill="#007484"/>
<path fill-rule="evenodd" clip-rule="evenodd" d="M178.839 1.33191C176.103 2.20968 174.767 3.49481 174.767 5.21883V22.0826C174.767 22.5841 175.077 22.8976 175.699 23.0229C175.761 23.0229 175.823 23.0229 175.886 22.9915C176.321 22.9915 176.601 22.6156 176.694 21.8946L176.694 12.9611H186.05V22.0826C186.05 22.5841 186.361 22.8976 186.983 23.0229C187.045 23.0229 187.076 23.0229 187.076 22.9915C187.667 22.9915 187.947 22.5841 187.947 21.8005L187.947 5.68904C187.947 4.81127 187.729 4.0278 187.294 3.40079C185.864 1.80204 183.968 1.01855 181.637 1.01855H181.17C180.455 1.01855 179.678 1.11247 178.839 1.33191ZM177.005 4.46659C178.03 3.43224 179.491 2.89924 181.325 2.89924C181.637 2.93039 181.885 2.96201 182.072 2.96201C184.714 3.36947 186.05 4.18429 186.05 5.40676V11.049H176.694V5.21864C176.694 4.99939 176.787 4.74843 177.005 4.46659Z" fill="#007484"/>
</g>
<defs>
<clipPath id="clip0_2117_8059">
<rect width="188" height="40" fill="white"/>
</clipPath>
</defs>
</svg>
