<svg width="72" height="72" viewBox="0 0 72 72" fill="none" xmlns="http://www.w3.org/2000/svg">
<g clip-path="url(#clip0_2096_730)">
<path d="M0 26.7291C0.394448 26.3422 0.753209 25.9046 1.19086 25.5759C5.46405 22.3735 9.75227 19.1899 14.0367 16.0026C15.0642 15.2381 15.8831 15.2269 16.4335 15.9612C16.9988 16.7144 16.7659 17.4751 15.7291 18.2471C11.9142 21.0851 8.09934 23.9212 4.28446 26.7592C4.06282 26.9245 3.84493 27.0935 3.67588 27.2231C5.295 28.8384 6.87843 30.4217 8.53511 32.0746C8.70416 31.9544 8.98779 31.7609 9.2639 31.5562C17.7389 25.2528 26.2158 18.9476 34.6889 12.6405C35.8084 11.8085 36.1841 11.8066 37.2979 12.6349C45.8481 18.9946 54.4001 25.3543 62.9521 31.7139C63.1381 31.8529 63.3296 31.9825 63.4743 32.084C65.0934 30.4574 66.6862 28.8572 68.3166 27.2193C67.0036 26.2408 65.64 25.219 64.2726 24.201C55.1214 17.3925 45.9626 10.5933 36.8283 3.76216C36.1897 3.28509 35.814 3.26818 35.1735 3.75652C31.8019 6.32594 28.3834 8.83525 24.9817 11.3633C23.9393 12.1391 23.1485 12.1597 22.5794 11.4291C22.0027 10.6909 22.2544 9.89081 23.3175 9.0982C27.1324 6.2602 30.9473 3.4222 34.7622 0.586071C35.8253 -0.204663 36.169 -0.204663 37.2547 0.602976C42.1233 4.22232 46.9901 7.84355 51.8568 11.4648C52.0578 11.615 52.2663 11.754 52.5837 11.9775C52.5837 10.3792 52.5837 8.8916 52.5837 7.40592C52.5837 5.73054 52.9632 5.35677 54.6612 5.35677C57.3321 5.35677 60.0031 5.35489 62.676 5.35677C63.88 5.35677 64.3928 5.86577 64.3928 7.0622C64.3965 11.4197 64.4003 15.7791 64.3853 20.1365C64.3853 20.6005 64.5074 20.8954 64.898 21.179C66.9642 22.6797 69.0041 24.2142 71.0496 25.7412C72.2423 26.6315 72.3062 27.4015 71.2618 28.4533C69.2144 30.5156 67.1595 32.5704 65.1065 34.6252C64.0584 35.677 63.6039 35.7052 62.3905 34.8055C62.2609 34.7097 62.1238 34.6214 61.9209 34.4843C61.8965 34.7041 61.8627 34.8731 61.8627 35.044C61.8589 38.8399 61.8645 42.6358 61.8533 46.4317C61.8533 46.8205 61.9265 47.0422 62.3323 47.2225C66.2673 48.9824 67.045 53.9146 63.7861 56.7751C60.5816 59.5887 57.2908 62.3009 54.0357 65.0563C52.4091 66.433 50.7599 67.7872 49.1558 69.1902C47.5123 70.629 45.679 71.6357 43.4851 71.9062C43.4213 71.9137 43.3612 71.9663 43.2992 71.9982H21.7923C19.6041 71.2075 17.4158 70.4167 15.1675 69.6053C14.8763 70.9051 14.0668 71.6113 12.9342 71.9982H2.25023C1.11385 71.6357 0.362517 70.8882 0 69.7499V47.8179C0.567254 46.1312 1.76187 45.487 3.50683 45.5509C5.47156 45.6241 7.44005 45.5678 9.40854 45.5659C9.63393 45.5659 9.85933 45.5452 10.081 45.5358V34.4825C9.86497 34.629 9.71282 34.7266 9.56819 34.8318C8.37546 35.7014 7.92654 35.6714 6.90661 34.6496C4.92121 32.6606 2.93207 30.6753 0.95419 28.6787C0.612334 28.3331 0.317437 27.9425 0.00187833 27.5706C0.00187833 27.2888 0.00187833 27.009 0.00187833 26.7273L0 26.7291ZM59.0527 46.8468V46.0336C59.0527 41.723 59.0395 37.4125 59.0677 33.102C59.0715 32.516 58.8799 32.1779 58.4216 31.8379C51.3459 26.5977 44.2853 21.3386 37.219 16.0852C36.8096 15.7809 36.3963 15.4842 35.9887 15.1855C35.0364 15.8918 34.1348 16.5604 33.2332 17.2309C26.6196 22.15 20.0042 27.0672 13.4 31.9994C13.1896 32.1572 12.9586 32.4634 12.9567 32.7019C12.9304 36.8716 12.936 41.0412 12.9454 45.2109C12.9454 45.3687 13.0337 45.6354 13.137 45.6692C14.3373 46.0448 14.9383 46.9314 15.2201 48.1015C18.6368 48.1015 22.0102 48.1034 25.3818 48.1015C27.4048 48.0996 29.2662 48.6368 30.9511 49.7562C34.0522 51.8166 37.1552 53.8695 40.2413 55.9525C42.4051 57.4137 43.0475 60.017 41.8209 62.1751C40.5963 64.3294 38.0173 65.1164 35.6713 64.0213C33.4455 62.9827 31.2366 61.9102 29.0201 60.8509C28.5562 60.6293 28.0791 60.4283 27.6358 60.1691C27.0385 59.8198 26.8375 59.26 27.0009 58.6008C27.1512 57.9885 27.5964 57.6222 28.2049 57.5922C28.5562 57.5753 28.9412 57.7086 29.27 57.8645C31.7456 59.0309 34.2043 60.233 36.6856 61.3862C37.112 61.5834 37.636 61.7205 38.0925 61.6679C38.8776 61.5797 39.381 61.0519 39.5632 60.2611C39.7379 59.5023 39.4411 58.798 38.6747 58.2852C35.5417 56.1891 32.4068 54.0987 29.2606 52.0214C28.1185 51.2663 26.8413 50.9188 25.472 50.917C22.215 50.917 18.9598 50.917 15.7028 50.917C15.5469 50.917 15.3891 50.9395 15.2182 50.9526C15.2032 51.086 15.1863 51.1762 15.1863 51.2663C15.1863 56.2323 15.19 61.1984 15.1731 66.1663C15.1731 66.5926 15.3591 66.7166 15.7028 66.8368C17.8009 67.5656 19.8915 68.3187 21.9914 69.0419C22.3145 69.1527 22.677 69.1884 23.0208 69.1884C29.253 69.1959 35.4853 69.1733 41.7157 69.2071C43.812 69.2184 45.6001 68.576 47.176 67.2031C49.1896 65.4488 51.2445 63.7453 53.2844 62.0192C56.1094 59.6282 58.9306 57.2334 61.7631 54.8518C62.7229 54.0461 63.2019 53.06 62.9183 51.8129C62.4224 49.6398 59.913 48.8603 58.1511 50.3309C54.5184 53.3643 50.9064 56.4183 47.2793 59.4573C46.4942 60.1165 45.6433 60.1165 45.0967 59.4892C44.5088 58.8149 44.6497 57.9941 45.478 57.2992C48.7952 54.5119 52.1198 51.7321 55.4294 48.9335C56.5076 48.0207 57.5688 47.1004 59.0527 46.8506V46.8468ZM8.99906 48.4151C8.99906 48.7006 8.99906 48.9504 8.99906 49.2021C8.99906 52.3406 9.00469 55.4792 8.9953 58.6158C8.99155 59.6413 8.24961 60.3269 7.35928 60.1672C6.62673 60.0357 6.19096 59.4573 6.18908 58.5689C6.18345 55.4303 6.18721 52.2918 6.18721 49.1552C6.18721 48.9091 6.18721 48.6612 6.18721 48.4151H2.8513V69.1433H12.3218V48.417H8.99906V48.4151ZM55.3956 8.20417C55.3956 9.98473 55.4106 11.7334 55.3843 13.482C55.3768 13.9271 55.5045 14.207 55.8708 14.4699C57.4054 15.58 58.9175 16.7238 60.4389 17.8526C60.7864 18.1099 61.1395 18.3616 61.5302 18.6452V8.20417H55.3956Z" fill="#007484"/>
<path d="M18.2385 13.6115C18.2309 12.8301 18.817 12.2272 19.5927 12.2122C20.3666 12.1972 20.9921 12.7851 21.0184 13.5495C21.0447 14.3346 20.4023 15.0014 19.619 14.9995C18.8583 14.9995 18.2441 14.3834 18.2366 13.6115H18.2385Z" fill="#007484"/>
<path d="M42.0594 28.6221C42.0105 28.7441 41.9298 29.039 41.7851 29.2963C38.746 34.6944 35.7012 40.0886 32.6527 45.4792C32.1681 46.3356 31.3942 46.6098 30.6654 46.2192C29.9047 45.8116 29.715 44.9852 30.2146 44.0968C33.2557 38.7006 36.3004 33.3064 39.3508 27.9158C39.7847 27.1476 40.4046 26.8603 41.077 27.0669C41.6912 27.2566 42.0763 27.7938 42.0594 28.6221Z" fill="#007484"/>
<path d="M34.5876 29.0038C34.5782 31.6333 32.4237 33.767 29.7903 33.7576C27.1701 33.7482 25.0212 31.5789 25.0325 28.955C25.0438 26.3349 27.2114 24.1918 29.8392 24.2012C32.4669 24.2125 34.597 26.3668 34.5876 29.0038ZM31.7738 28.9512C31.7588 27.8769 30.8572 26.9998 29.7847 27.0167C28.7159 27.0336 27.8312 27.9426 27.8481 29.0076C27.865 30.0763 28.7723 30.9572 29.841 30.9422C30.9136 30.9271 31.7889 30.0237 31.7738 28.9512Z" fill="#007484"/>
<path d="M42.2003 37.831C44.8375 37.8366 46.9656 39.974 46.96 42.6148C46.9543 45.2425 44.798 47.3912 42.1721 47.3837C39.5519 47.3761 37.3974 45.2087 37.4049 42.5867C37.4106 39.959 39.5631 37.8254 42.1984 37.8291L42.2003 37.831ZM42.2003 40.6446C41.124 40.6371 40.2299 41.5161 40.2205 42.5867C40.2111 43.6535 41.1033 44.5588 42.1702 44.5682C43.2371 44.5776 44.1368 43.6892 44.1462 42.6167C44.1538 41.5405 43.2766 40.6521 42.2003 40.6446Z" fill="#007484"/>
<path d="M7.66731 62.9492C8.43931 62.9511 9.04601 63.554 9.05164 64.326C9.05728 65.1261 8.42428 65.7459 7.62223 65.7252C6.85212 65.7046 6.26233 65.0904 6.2736 64.3166C6.28487 63.5465 6.89532 62.9473 7.66731 62.9511V62.9492Z" fill="#007484"/>
</g>
<defs>
<clipPath id="clip0_2096_730">
<rect width="72" height="72" fill="white"/>
</clipPath>
</defs>
</svg>
